<?xml version="1.0" encoding="UTF-8"?>
<!DOCTYPE svg PUBLIC "-//W3C//DTD SVG 1.1//EN" "http://www.w3.org/Graphics/SVG/1.1/DTD/svg11.dtd">
<svg xmlns="http://www.w3.org/2000/svg" version="1.1" width="1024px" height="768px" style="shape-rendering:geometricPrecision; text-rendering:geometricPrecision; image-rendering:optimizeQuality; fill-rule:evenodd; clip-rule:evenodd" xmlns:xlink="http://www.w3.org/1999/xlink">
<g><path style="opacity:1" fill="#fefefe" d="M -0.5,-0.5 C 340.833,-0.5 682.167,-0.5 1023.5,-0.5C 1023.5,255.5 1023.5,511.5 1023.5,767.5C 682.167,767.5 340.833,767.5 -0.5,767.5C -0.5,511.5 -0.5,255.5 -0.5,-0.5 Z"/></g>
<g><path style="opacity:1" fill="#4a7538" d="M 450.5,356.5 C 448.468,355.439 447.134,353.772 446.5,351.5C 444.971,350.237 443.305,349.237 441.5,348.5C 440.407,345.739 438.407,344.073 435.5,343.5C 435.158,342.662 434.492,342.328 433.5,342.5C 433.5,341.833 433.5,341.167 433.5,340.5C 433.334,334.824 433.501,329.157 434,323.5C 439.455,322.288 444.955,322.288 450.5,323.5C 450.5,334.5 450.5,345.5 450.5,356.5 Z"/></g>
<g><path style="opacity:1" fill="#eefae8" d="M 432.5,322.5 C 432.5,328.5 432.5,334.5 432.5,340.5C 432.265,341.097 431.765,341.43 431,341.5C 423.416,338.66 415.582,337.827 407.5,339C 405.148,339.24 403.148,340.073 401.5,341.5C 400.833,341.5 400.167,341.5 399.5,341.5C 399.36,339.876 400.027,338.71 401.5,338C 406.378,337.424 411.211,336.591 416,335.5C 421.083,337.03 426.249,338.03 431.5,338.5C 431.179,332.974 431.512,327.64 432.5,322.5 Z"/></g>
<g><path style="opacity:1" fill="#849d7b" d="M 452.5,324.5 C 452.5,336.167 452.5,347.833 452.5,359.5C 452.167,359.5 451.833,359.5 451.5,359.5C 451.443,358.391 451.11,357.391 450.5,356.5C 450.5,345.5 450.5,334.5 450.5,323.5C 444.955,322.288 439.455,322.288 434,323.5C 433.501,329.157 433.334,334.824 433.5,340.5C 433.167,340.5 432.833,340.5 432.5,340.5C 432.5,334.5 432.5,328.5 432.5,322.5C 438.979,321.509 445.646,321.176 452.5,321.5C 452.5,322.5 452.5,323.5 452.5,324.5 Z"/></g>
<g><path style="opacity:1" fill="#9aae93" d="M 482.5,321.5 C 482.831,352.338 482.498,383.005 481.5,413.5C 481.667,383.831 481.5,354.165 481,324.5C 478.276,323.224 475.276,322.558 472,322.5C 468.979,322.502 466.146,322.836 463.5,323.5C 463.5,341.833 463.5,360.167 463.5,378.5C 463.5,389.5 463.5,400.5 463.5,411.5C 463.5,412.167 463.5,412.833 463.5,413.5C 462.502,383.005 462.169,352.338 462.5,321.5C 469.167,321.5 475.833,321.5 482.5,321.5 Z"/></g>
<g><path style="opacity:1" fill="#497439" d="M 463.5,323.5 C 468.833,323.5 474.167,323.5 479.5,323.5C 480.461,341.799 480.794,360.132 480.5,378.5C 474.833,378.5 469.167,378.5 463.5,378.5C 463.5,360.167 463.5,341.833 463.5,323.5 Z"/></g>
<g><path style="opacity:1" fill="#7ea86f" d="M 432.5,340.5 C 432.833,340.5 433.167,340.5 433.5,340.5C 433.5,341.167 433.5,341.833 433.5,342.5C 427.171,341.836 420.838,341.169 414.5,340.5C 410.149,340.709 405.815,341.043 401.5,341.5C 403.148,340.073 405.148,339.24 407.5,339C 415.582,337.827 423.416,338.66 431,341.5C 431.765,341.43 432.265,341.097 432.5,340.5 Z"/></g>
<g><path style="opacity:1" fill="#96b487" d="M 587.5,340.5 C 578.076,338.923 568.742,339.256 559.5,341.5C 559.5,341.167 559.5,340.833 559.5,340.5C 568.963,337.893 578.296,337.893 587.5,340.5 Z"/></g>
<g><path style="opacity:1" fill="#80a66f" d="M 653.5,338.5 C 666.538,336.692 677.871,340.026 687.5,348.5C 685.548,349.408 683.548,349.241 681.5,348C 673.07,341.148 663.404,338.815 652.5,341C 649.524,341.705 646.858,342.871 644.5,344.5C 643.167,344.5 641.833,344.5 640.5,344.5C 644.724,342.221 649.057,340.221 653.5,338.5 Z"/></g>
<g><path style="opacity:1" fill="#ebf8db" d="M 559.5,340.5 C 559.5,340.833 559.5,341.167 559.5,341.5C 557.131,342.69 555.131,344.357 553.5,346.5C 552.127,346.343 550.793,346.51 549.5,347C 548.267,348.667 546.933,350.167 545.5,351.5C 545.829,349.009 546.829,346.843 548.5,345C 551.72,342.249 555.386,340.749 559.5,340.5 Z"/></g>
<g><path style="opacity:1" fill="#7da36c" d="M 517.5,364.5 C 518.28,360.873 519.78,357.54 522,354.5C 522.758,352.231 522.591,350.064 521.5,348C 517.5,347.333 513.5,347.333 509.5,348C 508.245,350.46 506.245,351.627 503.5,351.5C 504.203,349.284 505.536,347.451 507.5,346C 514.158,345.5 520.825,345.334 527.5,345.5C 525.52,352.457 522.187,358.79 517.5,364.5 Z"/></g>
<g><path style="opacity:1" fill="#deedd2" d="M 653.5,338.5 C 649.057,340.221 644.724,342.221 640.5,344.5C 639.833,344.5 639.5,344.833 639.5,345.5C 637.264,346.389 635.264,347.722 633.5,349.5C 631.198,353.633 628.698,357.633 626,361.5C 625.5,372.161 625.333,382.828 625.5,393.5C 625.5,409.833 625.5,426.167 625.5,442.5C 625.5,442.833 625.5,443.167 625.5,443.5C 624.226,415.337 623.726,387.004 624,358.5C 626.926,353.407 630.426,348.74 634.5,344.5C 638.587,342.932 642.587,341.266 646.5,339.5C 648.743,338.526 651.076,338.192 653.5,338.5 Z"/></g>
<g><path style="opacity:1" fill="#61994b" d="M 687.5,348.5 C 687.5,349.5 687.5,350.5 687.5,351.5C 691.325,356.474 694.658,361.807 697.5,367.5C 698.497,374.468 698.83,381.468 698.5,388.5C 693.838,403.931 683.505,413.098 667.5,416C 662.5,416.667 657.5,416.667 652.5,416C 651.263,415.768 650.263,415.268 649.5,414.5C 650.043,414.44 650.376,414.107 650.5,413.5C 648.318,411.553 645.984,411.219 643.5,412.5C 642.833,412.5 642.5,412.167 642.5,411.5C 644.456,405.588 645.123,399.255 644.5,392.5C 646.856,394.345 649.523,395.678 652.5,396.5C 664.024,400.825 673.857,398.158 682,388.5C 682.667,382.833 682.667,377.167 682,371.5C 681.392,369.934 680.558,368.6 679.5,367.5C 679.528,365.418 678.861,363.584 677.5,362C 674.163,360.328 670.83,358.661 667.5,357C 662.5,356.333 657.5,356.333 652.5,357C 649.955,359.423 647.289,361.59 644.5,363.5C 644.5,357.167 644.5,350.833 644.5,344.5C 646.858,342.871 649.524,341.705 652.5,341C 663.404,338.815 673.07,341.148 681.5,348C 683.548,349.241 685.548,349.408 687.5,348.5 Z"/></g>
<g><path style="opacity:1" fill="#8fc265" d="M 553.5,346.5 C 552.833,347.5 552.167,348.5 551.5,349.5C 548.482,350.855 547.149,353.188 547.5,356.5C 546.167,356.5 544.833,356.5 543.5,356.5C 543.077,354.219 543.744,352.552 545.5,351.5C 546.933,350.167 548.267,348.667 549.5,347C 550.793,346.51 552.127,346.343 553.5,346.5 Z"/></g>
<g><path style="opacity:1" fill="#83af56" d="M 639.5,345.5 C 634.951,350.242 631.118,355.575 628,361.5C 626.656,372.118 626.156,382.784 626.5,393.5C 626.167,393.5 625.833,393.5 625.5,393.5C 625.333,382.828 625.5,372.161 626,361.5C 628.698,357.633 631.198,353.633 633.5,349.5C 635.264,347.722 637.264,346.389 639.5,345.5 Z"/></g>
<g><path style="opacity:1" fill="#6f945f" d="M 431.5,364.5 C 420.25,354.737 409.583,355.403 399.5,366.5C 399.5,365.167 399.5,363.833 399.5,362.5C 402.521,361.656 404.855,359.823 406.5,357C 415.291,355.634 423.624,356.801 431.5,360.5C 431.5,361.833 431.5,363.167 431.5,364.5 Z"/></g>
<g><path style="opacity:1" fill="#dbecd2" d="M 581.5,358.5 C 582.167,359.167 582.833,359.833 583.5,360.5C 576.567,358.752 569.9,359.419 563.5,362.5C 568.621,357.722 574.621,356.389 581.5,358.5 Z"/></g>
<g><path style="opacity:1" fill="#ebf6e3" d="M 431.5,364.5 C 431.5,364.833 431.5,365.167 431.5,365.5C 431.5,366.167 431.5,366.833 431.5,367.5C 429.088,367.306 428.088,365.973 428.5,363.5C 425.846,361.683 422.846,360.683 419.5,360.5C 417.074,360.404 414.907,361.07 413,362.5C 412.439,361.978 411.772,361.645 411,361.5C 407.496,364.18 403.663,366.18 399.5,367.5C 399.5,367.167 399.5,366.833 399.5,366.5C 409.583,355.403 420.25,354.737 431.5,364.5 Z"/></g>
<g><path style="opacity:1" fill="#82c744" d="M 441.5,348.5 C 443.305,349.237 444.971,350.237 446.5,351.5C 447.134,353.772 448.468,355.439 450.5,356.5C 451.11,357.391 451.443,358.391 451.5,359.5C 450.669,370.993 450.169,382.659 450,394.5C 448.117,395.653 447.284,397.319 447.5,399.5C 447.567,400.959 447.234,402.292 446.5,403.5C 444.596,403.738 443.262,404.738 442.5,406.5C 441.167,406.833 439.833,407.167 438.5,407.5C 437.167,407.5 435.833,407.5 434.5,407.5C 434.334,402.156 434.501,396.823 435,391.5C 436.439,389.725 437.439,387.725 438,385.5C 438.641,379.472 438.474,373.472 437.5,367.5C 436.5,367.5 435.5,367.5 434.5,367.5C 434.334,360.825 434.5,354.158 435,347.5C 435.561,346.978 436.228,346.645 437,346.5C 438.406,347.414 439.906,348.08 441.5,348.5 Z"/></g>
<g><path style="opacity:1" fill="#709663" d="M 581.5,358.5 C 574.621,356.389 568.621,357.722 563.5,362.5C 561.859,363.147 560.526,364.147 559.5,365.5C 559.5,364.167 559.5,362.833 559.5,361.5C 564.398,358.79 569.565,357.124 575,356.5C 577.61,356.533 579.777,357.2 581.5,358.5 Z"/></g>
<g><path style="opacity:1" fill="#fbfdfa" d="M 583.5,360.5 C 587.388,361.725 590.388,364.059 592.5,367.5C 595.377,374.977 595.044,382.311 591.5,389.5C 588.397,391.423 585.397,393.59 582.5,396C 573.831,397.924 566.164,396.091 559.5,390.5C 559.5,390.167 559.5,389.833 559.5,389.5C 555.963,382.365 555.629,375.032 558.5,367.5C 559.338,367.158 559.672,366.492 559.5,365.5C 560.526,364.147 561.859,363.147 563.5,362.5C 569.9,359.419 576.567,358.752 583.5,360.5 Z"/></g>
<g><path style="opacity:1" fill="#fafcf9" d="M 679.5,367.5 C 683.484,381.183 679.15,390.85 666.5,396.5C 654.774,398.306 646.774,393.972 642.5,383.5C 642.392,378.13 642.725,372.797 643.5,367.5C 644.167,367.5 644.5,367.167 644.5,366.5C 647.335,363.835 650.335,361.335 653.5,359C 658.5,358.333 663.5,358.333 668.5,359C 672.592,361.255 676.258,364.089 679.5,367.5 Z"/></g>
<g><path style="opacity:1" fill="#fcfdfb" d="M 431.5,367.5 C 431.833,367.5 432.167,367.5 432.5,367.5C 432.943,370.812 433.276,374.145 433.5,377.5C 432.936,381.217 432.27,384.884 431.5,388.5C 431.5,389.167 431.5,389.833 431.5,390.5C 427.923,392.786 424.257,394.786 420.5,396.5C 408.749,397.705 400.916,392.705 397,381.5C 396.228,376.616 396.728,371.949 398.5,367.5C 398.833,367.5 399.167,367.5 399.5,367.5C 403.663,366.18 407.496,364.18 411,361.5C 411.772,361.645 412.439,361.978 413,362.5C 414.907,361.07 417.074,360.404 419.5,360.5C 422.846,360.683 425.846,361.683 428.5,363.5C 428.088,365.973 429.088,367.306 431.5,367.5 Z"/></g>
<g><path style="opacity:1" fill="#759964" d="M 679.5,367.5 C 676.258,364.089 672.592,361.255 668.5,359C 663.5,358.333 658.5,358.333 653.5,359C 650.335,361.335 647.335,363.835 644.5,366.5C 644.5,365.5 644.5,364.5 644.5,363.5C 647.289,361.59 649.955,359.423 652.5,357C 657.5,356.333 662.5,356.333 667.5,357C 670.83,358.661 674.163,360.328 677.5,362C 678.861,363.584 679.528,365.418 679.5,367.5 Z"/></g>
<g><path style="opacity:1" fill="#689354" d="M 503.5,351.5 C 504.395,356.883 503.062,361.549 499.5,365.5C 499.709,366.086 500.043,366.586 500.5,367C 498.866,367.494 497.199,367.66 495.5,367.5C 496.863,361.483 499.529,356.15 503.5,351.5 Z"/></g>
<g><path style="opacity:1" fill="#ebf8e4" d="M 452.5,324.5 C 453.029,337.727 454.029,351.06 455.5,364.5C 455.347,373.059 455.347,381.726 455.5,390.5C 454.677,393.636 453.677,396.636 452.5,399.5C 451.5,399.5 450.5,399.5 449.5,399.5C 450.931,397.811 451.764,395.811 452,393.5C 452.5,382.172 452.667,370.838 452.5,359.5C 452.5,347.833 452.5,336.167 452.5,324.5 Z"/></g>
<g><path style="opacity:1" fill="#83ad5d" d="M 543.5,356.5 C 543.736,359.226 542.903,361.559 541,363.5C 540.5,373.828 540.334,384.161 540.5,394.5C 540.167,394.5 539.833,394.5 539.5,394.5C 539.5,383.5 539.5,372.5 539.5,361.5C 540.593,359.651 541.926,357.984 543.5,356.5 Z"/></g>
<g><path style="opacity:1" fill="#81c742" d="M 640.5,344.5 C 641.833,344.5 643.167,344.5 644.5,344.5C 644.5,350.833 644.5,357.167 644.5,363.5C 644.5,364.5 644.5,365.5 644.5,366.5C 644.5,367.167 644.167,367.5 643.5,367.5C 641.643,369.282 640.643,371.615 640.5,374.5C 638.533,382.643 637.866,390.976 638.5,399.5C 639.328,395.204 639.828,390.871 640,386.5C 640.667,387.167 641.333,387.833 642,388.5C 642.5,395.492 642.666,402.492 642.5,409.5C 641.5,409.5 640.5,409.5 639.5,409.5C 635.543,407.543 632.543,404.543 630.5,400.5C 629.675,399.614 628.675,399.281 627.5,399.5C 627.768,397.901 627.434,396.568 626.5,395.5C 626.5,394.833 626.5,394.167 626.5,393.5C 626.156,382.784 626.656,372.118 628,361.5C 631.118,355.575 634.951,350.242 639.5,345.5C 639.5,344.833 639.833,344.5 640.5,344.5 Z"/></g>
<g><path style="opacity:1" fill="#639b4c" d="M 517.5,364.5 C 516.787,367.594 515.787,370.594 514.5,373.5C 513.512,374.795 512.512,376.128 511.5,377.5C 503.806,377.763 496.473,378.763 489.5,380.5C 488.833,380.167 488.167,379.833 487.5,379.5C 489.729,376.048 491.729,372.381 493.5,368.5C 493.957,367.702 494.624,367.369 495.5,367.5C 497.199,367.66 498.866,367.494 500.5,367C 500.043,366.586 499.709,366.086 499.5,365.5C 503.062,361.549 504.395,356.883 503.5,351.5C 506.245,351.627 508.245,350.46 509.5,348C 513.5,347.333 517.5,347.333 521.5,348C 522.591,350.064 522.758,352.231 522,354.5C 519.78,357.54 518.28,360.873 517.5,364.5 Z"/></g>
<g><path style="opacity:1" fill="#82c34a" d="M 559.5,361.5 C 559.5,362.833 559.5,364.167 559.5,365.5C 559.672,366.492 559.338,367.158 558.5,367.5C 557.069,367.881 556.236,368.881 556,370.5C 555.333,375.833 555.333,381.167 556,386.5C 557.039,387.71 558.206,388.71 559.5,389.5C 559.5,389.833 559.5,390.167 559.5,390.5C 559.5,392.167 559.5,393.833 559.5,395.5C 559.5,401.5 559.5,407.5 559.5,413.5C 559.167,413.5 558.833,413.5 558.5,413.5C 558.5,412.833 558.167,412.5 557.5,412.5C 551.609,409.543 546.943,405.209 543.5,399.5C 544.552,399.351 545.552,399.517 546.5,400C 548.098,402.764 550.431,404.597 553.5,405.5C 556.695,398.074 556.029,391.074 551.5,384.5C 549.955,383.548 548.288,383.215 546.5,383.5C 546.373,377.829 545.373,372.329 543.5,367C 544.685,362.827 546.352,362.994 548.5,367.5C 549.271,369.862 550.105,372.196 551,374.5C 552,373.833 553,373.167 554,372.5C 554.793,368.577 554.626,364.744 553.5,361C 554.202,357.534 554.869,354.034 555.5,350.5C 554.311,349.571 552.978,349.238 551.5,349.5C 552.167,348.5 552.833,347.5 553.5,346.5C 555.315,345.37 557.315,344.704 559.5,344.5C 559.5,350.167 559.5,355.833 559.5,361.5 Z"/></g>
<g><path style="opacity:1" fill="#90b383" d="M 687.5,351.5 C 689.606,351.679 691.272,352.679 692.5,354.5C 694.872,357.704 697.039,361.038 699,364.5C 699.781,368.969 700.281,373.469 700.5,378C 700.621,381.782 699.954,385.282 698.5,388.5C 698.83,381.468 698.497,374.468 697.5,367.5C 694.658,361.807 691.325,356.474 687.5,351.5 Z"/></g>
<g><path style="opacity:1" fill="#678a58" d="M 383.5,357.5 C 383.559,361.27 382.392,364.604 380,367.5C 379.333,373.833 379.333,380.167 380,386.5C 382.436,390.11 383.603,394.11 383.5,398.5C 379.296,391.872 377.296,384.539 377.5,376.5C 376.596,369.075 378.596,362.742 383.5,357.5 Z"/></g>
<g><path style="opacity:1" fill="#effbdf" d="M 432.5,367.5 C 433.315,368.429 434.148,369.429 435,370.5C 435.499,374.821 435.666,379.154 435.5,383.5C 434.407,385.349 433.074,387.016 431.5,388.5C 432.27,384.884 432.936,381.217 433.5,377.5C 433.276,374.145 432.943,370.812 432.5,367.5 Z"/></g>
<g><path style="opacity:1" fill="#a5d282" d="M 451.5,359.5 C 451.833,359.5 452.167,359.5 452.5,359.5C 452.667,370.838 452.5,382.172 452,393.5C 451.764,395.811 450.931,397.811 449.5,399.5C 448.833,399.5 448.167,399.5 447.5,399.5C 447.284,397.319 448.117,395.653 450,394.5C 450.169,382.659 450.669,370.993 451.5,359.5 Z"/></g>
<g><path style="opacity:1" fill="#8eb07f" d="M 596.5,345.5 C 613.222,356.492 618.389,371.826 612,391.5C 610.205,394.099 608.705,396.766 607.5,399.5C 609.015,394.274 610.348,388.941 611.5,383.5C 614.575,368.208 609.741,356.208 597,347.5C 596.536,346.906 596.369,346.239 596.5,345.5 Z"/></g>
<g><path style="opacity:1" fill="#bce09e" d="M 643.5,367.5 C 642.725,372.797 642.392,378.13 642.5,383.5C 640.612,381.012 639.945,378.012 640.5,374.5C 640.643,371.615 641.643,369.282 643.5,367.5 Z"/></g>
<g><path style="opacity:1" fill="#609749" d="M 463.5,378.5 C 469.167,378.5 474.833,378.5 480.5,378.5C 480.719,389.463 480.385,400.463 479.5,411.5C 474.167,411.5 468.833,411.5 463.5,411.5C 463.5,400.5 463.5,389.5 463.5,378.5 Z"/></g>
<g><path style="opacity:1" fill="#c3e4a8" d="M 558.5,367.5 C 555.629,375.032 555.963,382.365 559.5,389.5C 558.206,388.71 557.039,387.71 556,386.5C 555.333,381.167 555.333,375.833 556,370.5C 556.236,368.881 557.069,367.881 558.5,367.5 Z"/></g>
<g><path style="opacity:1" fill="#81c743" d="M 511.5,383.5 C 513.176,384.183 513.843,385.517 513.5,387.5C 513.192,391.573 512.525,395.573 511.5,399.5C 512.833,399.5 514.167,399.5 515.5,399.5C 515.5,398.5 515.5,397.5 515.5,396.5C 516.5,396.5 517.5,396.5 518.5,396.5C 518.421,397.93 518.754,399.264 519.5,400.5C 516.833,401.167 514.167,401.833 511.5,402.5C 514.785,403.324 518.118,403.824 521.5,404C 522.249,405.734 522.749,407.567 523,409.5C 523.75,410.126 524.584,410.626 525.5,411C 519.747,411.851 514.08,411.517 508.5,410C 503.709,403.917 500.376,397.084 498.5,389.5C 497.675,388.614 496.675,388.281 495.5,388.5C 493.707,380.89 496.707,378.057 504.5,380C 506.043,382.702 508.376,383.868 511.5,383.5 Z"/></g>
<g><path style="opacity:1" fill="#669255" d="M 592.5,367.5 C 594.39,367.297 595.89,367.963 597,369.5C 597.667,375.167 597.667,380.833 597,386.5C 595.417,387.971 593.583,388.971 591.5,389.5C 595.044,382.311 595.377,374.977 592.5,367.5 Z"/></g>
<g><path style="opacity:1" fill="#609949" d="M 433.5,342.5 C 434.492,342.328 435.158,342.662 435.5,343.5C 434.5,343.5 433.5,343.5 432.5,343.5C 432.203,350.558 432.536,357.558 433.5,364.5C 433.043,365.298 432.376,365.631 431.5,365.5C 431.5,365.167 431.5,364.833 431.5,364.5C 431.5,363.167 431.5,361.833 431.5,360.5C 423.624,356.801 415.291,355.634 406.5,357C 404.855,359.823 402.521,361.656 399.5,362.5C 399.5,363.833 399.5,365.167 399.5,366.5C 399.5,366.833 399.5,367.167 399.5,367.5C 399.167,367.5 398.833,367.5 398.5,367.5C 396.716,368.574 395.549,370.24 395,372.5C 394.333,377.167 394.333,381.833 395,386.5C 398.071,389.38 400.904,392.38 403.5,395.5C 401.273,397.731 398.606,399.064 395.5,399.5C 395.147,401.635 395.98,402.968 398,403.5C 399.168,402.491 400.335,401.491 401.5,400.5C 404.192,402.862 406.859,405.196 409.5,407.5C 404.863,409.797 400.197,409.63 395.5,407C 392.373,403.457 388.706,400.957 384.5,399.5C 383.833,399.5 383.5,399.167 383.5,398.5C 383.603,394.11 382.436,390.11 380,386.5C 379.333,380.167 379.333,373.833 380,367.5C 382.392,364.604 383.559,361.27 383.5,357.5C 387.133,350.534 392.466,345.201 399.5,341.5C 400.167,341.5 400.833,341.5 401.5,341.5C 405.815,341.043 410.149,340.709 414.5,340.5C 420.838,341.169 427.171,341.836 433.5,342.5 Z"/></g>
<g><path style="opacity:1" fill="#6c955d" d="M 679.5,367.5 C 680.558,368.6 681.392,369.934 682,371.5C 682.667,377.167 682.667,382.833 682,388.5C 673.857,398.158 664.024,400.825 652.5,396.5C 657.298,397.744 661.965,397.744 666.5,396.5C 679.15,390.85 683.484,381.183 679.5,367.5 Z"/></g>
<g><path style="opacity:1" fill="#f8fbf7" d="M 482.5,321.5 C 483.497,341.993 483.831,362.66 483.5,383.5C 486.142,383.512 487.475,382.179 487.5,379.5C 488.167,379.833 488.833,380.167 489.5,380.5C 489.5,381.5 489.5,382.5 489.5,383.5C 490.5,383.5 491.5,383.5 492.5,383.5C 495.71,394.153 501.043,403.653 508.5,412C 514.742,413.37 521.075,413.87 527.5,413.5C 527.5,412.167 527.5,410.833 527.5,409.5C 527.5,408.833 527.5,408.167 527.5,407.5C 529.693,409.522 530.693,412.189 530.5,415.5C 527.603,415.125 524.937,415.625 522.5,417C 523.737,417.232 524.737,417.732 525.5,418.5C 525.167,418.5 524.833,418.5 524.5,418.5C 522.599,418.433 520.766,418.767 519,419.5C 518.158,416.316 515.658,414.983 511.5,415.5C 511.5,417.5 511.5,419.5 511.5,421.5C 510.167,421.5 508.833,421.5 507.5,421.5C 502.679,422.616 497.679,423.45 492.5,424C 489.906,426.086 487.906,428.586 486.5,431.5C 485.883,431.611 485.383,431.944 485,432.5C 484.066,431.142 483.232,429.808 482.5,428.5C 482.5,428.167 482.5,427.833 482.5,427.5C 480.381,425.283 477.714,423.95 474.5,423.5C 473.82,420.64 472.487,418.14 470.5,416C 469.207,415.51 467.873,415.343 466.5,415.5C 464.821,415.715 463.821,415.048 463.5,413.5C 469.5,413.5 475.5,413.5 481.5,413.5C 482.498,383.005 482.831,352.338 482.5,321.5 Z"/></g>
<g><path style="opacity:1" fill="#cee8bb" d="M 514.5,373.5 C 514.479,379.39 515.479,385.057 517.5,390.5C 516.363,389.211 515.03,388.211 513.5,387.5C 513.843,385.517 513.176,384.183 511.5,383.5C 511.5,381.5 511.5,379.5 511.5,377.5C 512.512,376.128 513.512,374.795 514.5,373.5 Z"/></g>
<g><path style="opacity:1" fill="#719560" d="M 463.5,323.5 C 466.146,322.836 468.979,322.502 472,322.5C 475.276,322.558 478.276,323.224 481,324.5C 481.5,354.165 481.667,383.831 481.5,413.5C 475.5,413.5 469.5,413.5 463.5,413.5C 463.5,412.833 463.5,412.167 463.5,411.5C 468.833,411.5 474.167,411.5 479.5,411.5C 480.385,400.463 480.719,389.463 480.5,378.5C 480.794,360.132 480.461,341.799 479.5,323.5C 474.167,323.5 468.833,323.5 463.5,323.5 Z"/></g>
<g><path style="opacity:1" fill="#80c742" d="M 551.5,349.5 C 552.978,349.238 554.311,349.571 555.5,350.5C 554.869,354.034 554.202,357.534 553.5,361C 554.626,364.744 554.793,368.577 554,372.5C 553,373.167 552,373.833 551,374.5C 550.105,372.196 549.271,369.862 548.5,367.5C 546.352,362.994 544.685,362.827 543.5,367C 545.373,372.329 546.373,377.829 546.5,383.5C 548.288,383.215 549.955,383.548 551.5,384.5C 556.029,391.074 556.695,398.074 553.5,405.5C 550.431,404.597 548.098,402.764 546.5,400C 545.552,399.517 544.552,399.351 543.5,399.5C 542.065,398.087 541.065,396.42 540.5,394.5C 540.334,384.161 540.5,373.828 541,363.5C 542.903,361.559 543.736,359.226 543.5,356.5C 544.833,356.5 546.167,356.5 547.5,356.5C 547.149,353.188 548.482,350.855 551.5,349.5 Z"/></g>
<g><path style="opacity:1" fill="#88c052" d="M 511.5,377.5 C 511.5,379.5 511.5,381.5 511.5,383.5C 508.376,383.868 506.043,382.702 504.5,380C 496.707,378.057 493.707,380.89 495.5,388.5C 496.675,388.281 497.675,388.614 498.5,389.5C 500.376,397.084 503.709,403.917 508.5,410C 514.08,411.517 519.747,411.851 525.5,411C 524.584,410.626 523.75,410.126 523,409.5C 522.749,407.567 522.249,405.734 521.5,404C 518.118,403.824 514.785,403.324 511.5,402.5C 514.167,401.833 516.833,401.167 519.5,400.5C 518.754,399.264 518.421,397.93 518.5,396.5C 517.5,396.5 516.5,396.5 515.5,396.5C 515.5,397.5 515.5,398.5 515.5,399.5C 514.167,399.5 512.833,399.5 511.5,399.5C 512.525,395.573 513.192,391.573 513.5,387.5C 515.03,388.211 516.363,389.211 517.5,390.5C 519.219,394.807 521.053,399.141 523,403.5C 524.594,405.526 526.094,407.526 527.5,409.5C 527.5,410.833 527.5,412.167 527.5,413.5C 521.075,413.87 514.742,413.37 508.5,412C 501.043,403.653 495.71,394.153 492.5,383.5C 491.5,383.5 490.5,383.5 489.5,383.5C 489.5,382.5 489.5,381.5 489.5,380.5C 496.473,378.763 503.806,377.763 511.5,377.5 Z"/></g>
<g><path style="opacity:1" fill="#659552" d="M 431.5,390.5 C 430.677,393.351 429.344,396.018 427.5,398.5C 421.872,399.495 416.206,399.829 410.5,399.5C 410.338,401.527 410.505,403.527 411,405.5C 412.356,406.38 413.856,406.714 415.5,406.5C 415.5,409.5 415.5,412.5 415.5,415.5C 417.288,415.785 418.955,415.452 420.5,414.5C 420.291,413.914 419.957,413.414 419.5,413C 423.821,412.501 428.154,412.334 432.5,412.5C 430.351,413.736 428.018,414.736 425.5,415.5C 408.133,419.306 394.466,413.973 384.5,399.5C 388.706,400.957 392.373,403.457 395.5,407C 400.197,409.63 404.863,409.797 409.5,407.5C 406.859,405.196 404.192,402.862 401.5,400.5C 400.335,401.491 399.168,402.491 398,403.5C 395.98,402.968 395.147,401.635 395.5,399.5C 398.606,399.064 401.273,397.731 403.5,395.5C 409.136,397.689 414.802,398.023 420.5,396.5C 424.257,394.786 427.923,392.786 431.5,390.5 Z"/></g>
<g><path style="opacity:1" fill="#8eb27e" d="M 398.5,367.5 C 396.728,371.949 396.228,376.616 397,381.5C 400.916,392.705 408.749,397.705 420.5,396.5C 414.802,398.023 409.136,397.689 403.5,395.5C 400.904,392.38 398.071,389.38 395,386.5C 394.333,381.833 394.333,377.167 395,372.5C 395.549,370.24 396.716,368.574 398.5,367.5 Z"/></g>
<g><path style="opacity:1" fill="#a0c291" d="M 642.5,383.5 C 646.774,393.972 654.774,398.306 666.5,396.5C 661.965,397.744 657.298,397.744 652.5,396.5C 649.523,395.678 646.856,394.345 644.5,392.5C 643.422,389.598 642.756,386.598 642.5,383.5 Z"/></g>
<g><path style="opacity:1" fill="#79a168" d="M 591.5,389.5 C 591.5,390.5 591.5,391.5 591.5,392.5C 587.817,395.614 583.484,397.781 578.5,399C 574.5,399.667 570.5,399.667 566.5,399C 564.99,396.245 562.657,395.079 559.5,395.5C 559.5,393.833 559.5,392.167 559.5,390.5C 566.164,396.091 573.831,397.924 582.5,396C 585.397,393.59 588.397,391.423 591.5,389.5 Z"/></g>
<g><path style="opacity:1" fill="#629a4a" d="M 435.5,383.5 C 435.736,386.226 434.903,388.559 433,390.5C 432.665,397.191 432.165,403.857 431.5,410.5C 434.063,409.912 436.396,408.912 438.5,407.5C 439.833,407.167 441.167,406.833 442.5,406.5C 439.534,408.988 436.201,410.988 432.5,412.5C 428.154,412.334 423.821,412.501 419.5,413C 419.957,413.414 420.291,413.914 420.5,414.5C 418.955,415.452 417.288,415.785 415.5,415.5C 415.5,412.5 415.5,409.5 415.5,406.5C 413.856,406.714 412.356,406.38 411,405.5C 410.505,403.527 410.338,401.527 410.5,399.5C 416.206,399.829 421.872,399.495 427.5,398.5C 429.344,396.018 430.677,393.351 431.5,390.5C 431.5,389.833 431.5,389.167 431.5,388.5C 433.074,387.016 434.407,385.349 435.5,383.5 Z"/></g>
<g><path style="opacity:1" fill="#61984b" d="M 587.5,340.5 C 590.992,341.41 593.992,343.076 596.5,345.5C 596.369,346.239 596.536,346.906 597,347.5C 609.741,356.208 614.575,368.208 611.5,383.5C 610.348,388.941 609.015,394.274 607.5,399.5C 607.5,399.833 607.5,400.167 607.5,400.5C 604.369,403.129 601.369,405.962 598.5,409C 594.566,411.464 590.566,413.631 586.5,415.5C 578.841,416.793 571.174,416.793 563.5,415.5C 562.486,414.326 561.153,413.66 559.5,413.5C 559.5,407.5 559.5,401.5 559.5,395.5C 562.657,395.079 564.99,396.245 566.5,399C 570.5,399.667 574.5,399.667 578.5,399C 583.484,397.781 587.817,395.614 591.5,392.5C 591.5,391.5 591.5,390.5 591.5,389.5C 593.583,388.971 595.417,387.971 597,386.5C 597.667,380.833 597.667,375.167 597,369.5C 595.89,367.963 594.39,367.297 592.5,367.5C 590.388,364.059 587.388,361.725 583.5,360.5C 582.833,359.833 582.167,359.167 581.5,358.5C 579.777,357.2 577.61,356.533 575,356.5C 569.565,357.124 564.398,358.79 559.5,361.5C 559.5,355.833 559.5,350.167 559.5,344.5C 557.315,344.704 555.315,345.37 553.5,346.5C 555.131,344.357 557.131,342.69 559.5,341.5C 568.742,339.256 578.076,338.923 587.5,340.5 Z"/></g>
<g><path style="opacity:1" fill="#c4e3a8" d="M 517.5,390.5 C 522.484,392.791 524.651,396.791 524,402.5C 525.802,403.789 526.969,405.456 527.5,407.5C 527.5,408.167 527.5,408.833 527.5,409.5C 526.094,407.526 524.594,405.526 523,403.5C 521.053,399.141 519.219,394.807 517.5,390.5 Z"/></g>
<g><path style="opacity:1" fill="#487634" d="M 626.5,395.5 C 627.434,396.568 627.768,397.901 627.5,399.5C 628.675,399.281 629.675,399.614 630.5,400.5C 632.543,404.543 635.543,407.543 639.5,409.5C 640.5,410.167 641.5,410.833 642.5,411.5C 642.5,412.167 642.833,412.5 643.5,412.5C 643.5,412.833 643.5,413.167 643.5,413.5C 641.08,413.708 638.747,413.374 636.5,412.5C 634.823,410.46 633.156,408.46 631.5,406.5C 631.167,407.167 630.833,407.833 630.5,408.5C 633.187,413.046 633.853,418.046 632.5,423.5C 633.04,427.816 633.54,431.816 634,435.5C 635,439.167 636.667,439.5 639,436.5C 639.665,431.323 640.498,431.323 641.5,436.5C 641.21,438.044 640.544,439.377 639.5,440.5C 635.555,441.491 631.555,441.824 627.5,441.5C 627.648,426.152 627.314,410.819 626.5,395.5 Z"/></g>
<g><path style="opacity:1" fill="#7dbb51" d="M 435.5,343.5 C 438.407,344.073 440.407,345.739 441.5,348.5C 439.906,348.08 438.406,347.414 437,346.5C 436.228,346.645 435.561,346.978 435,347.5C 434.5,354.158 434.334,360.825 434.5,367.5C 435.5,367.5 436.5,367.5 437.5,367.5C 438.474,373.472 438.641,379.472 438,385.5C 437.439,387.725 436.439,389.725 435,391.5C 434.501,396.823 434.334,402.156 434.5,407.5C 435.833,407.5 437.167,407.5 438.5,407.5C 436.396,408.912 434.063,409.912 431.5,410.5C 432.165,403.857 432.665,397.191 433,390.5C 434.903,388.559 435.736,386.226 435.5,383.5C 435.666,379.154 435.499,374.821 435,370.5C 434.148,369.429 433.315,368.429 432.5,367.5C 432.167,367.5 431.833,367.5 431.5,367.5C 431.5,366.833 431.5,366.167 431.5,365.5C 432.376,365.631 433.043,365.298 433.5,364.5C 432.536,357.558 432.203,350.558 432.5,343.5C 433.5,343.5 434.5,343.5 435.5,343.5 Z"/></g>
<g><path style="opacity:1" fill="#e7f4df" d="M 607.5,400.5 C 607.66,402.199 607.494,403.866 607,405.5C 603.503,409.163 599.336,411.663 594.5,413C 595.833,413.667 595.833,414.333 594.5,415C 591.854,415.497 589.187,415.664 586.5,415.5C 590.566,413.631 594.566,411.464 598.5,409C 601.369,405.962 604.369,403.129 607.5,400.5 Z"/></g>
<g><path style="opacity:1" fill="#84c553" d="M 640.5,374.5 C 639.945,378.012 640.612,381.012 642.5,383.5C 642.756,386.598 643.422,389.598 644.5,392.5C 645.123,399.255 644.456,405.588 642.5,411.5C 641.5,410.833 640.5,410.167 639.5,409.5C 640.5,409.5 641.5,409.5 642.5,409.5C 642.666,402.492 642.5,395.492 642,388.5C 641.333,387.833 640.667,387.167 640,386.5C 639.828,390.871 639.328,395.204 638.5,399.5C 637.866,390.976 638.533,382.643 640.5,374.5 Z"/></g>
<g><path style="opacity:1" fill="#4b743b" d="M 643.5,413.5 C 642.527,423.084 642.194,432.75 642.5,442.5C 637.5,442.5 632.5,442.5 627.5,442.5C 627.5,442.167 627.5,441.833 627.5,441.5C 631.555,441.824 635.555,441.491 639.5,440.5C 640.544,439.377 641.21,438.044 641.5,436.5C 640.498,431.323 639.665,431.323 639,436.5C 636.667,439.5 635,439.167 634,435.5C 633.54,431.816 633.04,427.816 632.5,423.5C 633.853,418.046 633.187,413.046 630.5,408.5C 630.833,407.833 631.167,407.167 631.5,406.5C 633.156,408.46 634.823,410.46 636.5,412.5C 638.747,413.374 641.08,413.708 643.5,413.5 Z"/></g>
<g><path style="opacity:1" fill="#f1fae7" d="M 446.5,403.5 C 444.488,405.567 444.154,407.9 445.5,410.5C 446.086,410.291 446.586,409.957 447,409.5C 447.749,410.635 447.583,411.635 446.5,412.5C 444.232,411.456 441.899,411.289 439.5,412C 437.043,413.562 434.376,414.562 431.5,415C 429.085,416.465 428.085,418.632 428.5,421.5C 427.5,421.5 426.5,421.5 425.5,421.5C 425.5,419.5 425.5,417.5 425.5,415.5C 428.018,414.736 430.351,413.736 432.5,412.5C 436.201,410.988 439.534,408.988 442.5,406.5C 443.262,404.738 444.596,403.738 446.5,403.5 Z"/></g>
<g><path style="opacity:1" fill="#e2e8f5" d="M 524.5,418.5 C 524.167,419.167 523.833,419.833 523.5,420.5C 520.646,420.882 517.646,420.882 514.5,420.5C 513.993,424.86 513.327,429.193 512.5,433.5C 511.527,435.948 511.194,438.615 511.5,441.5C 510.819,439.842 509.985,438.175 509,436.5C 508.817,439.365 508.317,442.031 507.5,444.5C 508.468,437.202 509.468,429.868 510.5,422.5C 509.209,422.737 508.209,422.404 507.5,421.5C 508.833,421.5 510.167,421.5 511.5,421.5C 511.5,419.5 511.5,417.5 511.5,415.5C 515.658,414.983 518.158,416.316 519,419.5C 520.766,418.767 522.599,418.433 524.5,418.5 Z"/></g>
<g><path style="opacity:1" fill="#497634" d="M 540.5,394.5 C 541.065,396.42 542.065,398.087 543.5,399.5C 546.943,405.209 551.609,409.543 557.5,412.5C 555.153,413.716 552.653,413.716 550,412.5C 547.976,412.8 547.476,413.633 548.5,415C 547.552,415.483 546.552,415.649 545.5,415.5C 545.5,420.833 545.5,426.167 545.5,431.5C 546.833,431.5 548.167,431.5 549.5,431.5C 549.5,426.167 549.5,420.833 549.5,415.5C 551.167,415.5 552.833,415.5 554.5,415.5C 554.785,423.961 554.118,432.295 552.5,440.5C 550.738,440.643 549.071,440.309 547.5,439.5C 548.21,436.914 547.21,434.914 544.5,433.5C 543.833,435.5 543.167,437.5 542.5,439.5C 541.75,424.492 541.083,409.492 540.5,394.5 Z"/></g>
<g><path style="opacity:1" fill="#8da683" d="M 539.5,361.5 C 539.5,372.5 539.5,383.5 539.5,394.5C 539.5,410.5 539.5,426.5 539.5,442.5C 545.537,442.829 551.537,442.496 557.5,441.5C 556.861,437.05 556.528,432.55 556.5,428C 556.509,423.443 557.175,419.276 558.5,415.5C 558.5,424.833 558.5,434.167 558.5,443.5C 551.833,443.5 545.167,443.5 538.5,443.5C 538.169,415.995 538.502,388.662 539.5,361.5 Z"/></g>
<g><path style="opacity:1" fill="#cce6c4" d="M 558.5,413.5 C 558.833,413.5 559.167,413.5 559.5,413.5C 561.153,413.66 562.486,414.326 563.5,415.5C 562.167,415.5 560.833,415.5 559.5,415.5C 559.827,425.015 559.494,434.348 558.5,443.5C 558.5,434.167 558.5,424.833 558.5,415.5C 558.5,414.833 558.5,414.167 558.5,413.5 Z"/></g>
<g><path style="opacity:1" fill="#dfe7f8" d="M 466.5,415.5 C 467.873,415.343 469.207,415.51 470.5,416C 472.487,418.14 473.82,420.64 474.5,423.5C 477.714,423.95 480.381,425.283 482.5,427.5C 478.831,426.249 475.164,426.249 471.5,427.5C 470.682,424.893 470.182,422.226 470,419.5C 467.959,418.577 465.792,418.244 463.5,418.5C 464.1,417.1 465.1,416.1 466.5,415.5 Z"/></g>
<g><path style="opacity:1" fill="#47613b" d="M 625.5,393.5 C 625.833,393.5 626.167,393.5 626.5,393.5C 626.5,394.167 626.5,394.833 626.5,395.5C 627.314,410.819 627.648,426.152 627.5,441.5C 627.5,441.833 627.5,442.167 627.5,442.5C 626.833,442.5 626.167,442.5 625.5,442.5C 625.5,426.167 625.5,409.833 625.5,393.5 Z"/></g>
<g><path style="opacity:1" fill="#1a378a" d="M 523.5,420.5 C 526.95,419.756 528.616,421.09 528.5,424.5C 525.794,424.575 523.127,424.908 520.5,425.5C 520.616,422.09 518.95,420.756 515.5,421.5C 515.82,424.898 515.487,428.232 514.5,431.5C 513.818,432.243 513.151,432.909 512.5,433.5C 513.327,429.193 513.993,424.86 514.5,420.5C 517.646,420.882 520.646,420.882 523.5,420.5 Z"/></g>
<g><path style="opacity:1" fill="#354f98" d="M 524.5,418.5 C 524.833,418.5 525.167,418.5 525.5,418.5C 531.375,418.636 532.875,421.303 530,426.5C 527.926,429.043 525.759,429.043 523.5,426.5C 522.833,426.833 522.167,427.167 521.5,427.5C 520.083,432.393 519.083,437.393 518.5,442.5C 515.75,444.078 513.417,443.745 511.5,441.5C 511.194,438.615 511.527,435.948 512.5,433.5C 512.338,435.527 512.505,437.527 513,439.5C 514.049,440.517 515.216,440.684 516.5,440C 517.514,435.004 518.847,430.171 520.5,425.5C 523.127,424.908 525.794,424.575 528.5,424.5C 528.616,421.09 526.95,419.756 523.5,420.5C 523.833,419.833 524.167,419.167 524.5,418.5 Z"/></g>
<g><path style="opacity:1" fill="#0533a1" d="M 507.5,429.5 C 507.604,432.09 506.937,434.423 505.5,436.5C 506.223,438.782 506.557,441.116 506.5,443.5C 504.053,443.385 502.053,442.385 500.5,440.5C 500.5,440.167 500.5,439.833 500.5,439.5C 502.438,435.074 503.438,430.408 503.5,425.5C 504.833,425.5 506.167,425.5 507.5,425.5C 507.5,426.833 507.5,428.167 507.5,429.5 Z"/></g>
<g><path style="opacity:1" fill="#74829e" d="M 422.5,424.5 C 425.833,423.167 429.167,423.167 432.5,424.5C 432.815,428.371 432.482,432.038 431.5,435.5C 431.5,431.833 431.5,428.167 431.5,424.5C 428.5,424.5 425.5,424.5 422.5,424.5 Z"/></g>
<g><path style="opacity:1" fill="#173895" d="M 507.5,429.5 C 507.5,428.167 507.5,426.833 507.5,425.5C 506.167,425.5 504.833,425.5 503.5,425.5C 503.438,430.408 502.438,435.074 500.5,439.5C 499.566,438.432 499.232,437.099 499.5,435.5C 500.75,432.994 501.416,430.327 501.5,427.5C 497.74,426.774 495.073,428.107 493.5,431.5C 492.833,431.5 492.167,431.5 491.5,431.5C 490.517,435.298 490.183,439.298 490.5,443.5C 489.178,443.67 488.011,443.337 487,442.5C 486.502,439.518 486.335,436.518 486.5,433.5C 486.5,432.833 486.5,432.167 486.5,431.5C 489.191,429.803 491.524,427.637 493.5,425C 498.508,424.499 503.508,423.999 508.5,423.5C 508.795,425.735 508.461,427.735 507.5,429.5 Z"/></g>
<g><path style="opacity:1" fill="#e8f0f8" d="M 499.5,435.5 C 498.517,437.756 496.85,439.423 494.5,440.5C 493.478,440.145 492.811,439.478 492.5,438.5C 492.448,436.097 492.781,433.764 493.5,431.5C 495.073,428.107 497.74,426.774 501.5,427.5C 501.416,430.327 500.75,432.994 499.5,435.5 Z"/></g>
<g><path style="opacity:1" fill="#36559c" d="M 463.5,419.5 C 463.5,419.167 463.5,418.833 463.5,418.5C 465.792,418.244 467.959,418.577 470,419.5C 470.182,422.226 470.682,424.893 471.5,427.5C 475.164,426.249 478.831,426.249 482.5,427.5C 482.5,427.833 482.5,428.167 482.5,428.5C 482.279,431.279 482.612,433.946 483.5,436.5C 483.206,439.754 481.873,442.421 479.5,444.5C 479.5,444.167 479.5,443.833 479.5,443.5C 480.627,441.002 481.294,438.336 481.5,435.5C 481.247,433.142 480.914,430.808 480.5,428.5C 477.715,427.916 476.048,428.916 475.5,431.5C 472.737,431.744 470.571,433.077 469,435.5C 467.957,438.757 467.457,442.09 467.5,445.5C 468.5,445.5 469.5,445.5 470.5,445.5C 470.5,446.167 470.5,446.833 470.5,447.5C 466.681,447.72 465.014,445.887 465.5,442C 466.33,438.011 467.663,434.178 469.5,430.5C 468.746,427.223 468.246,423.89 468,420.5C 466.644,419.62 465.144,419.286 463.5,419.5 Z"/></g>
<g><path style="opacity:1" fill="#e1ecf5" d="M 463.5,419.5 C 463.154,424.216 462.487,428.883 461.5,433.5C 460.313,436.946 459.646,440.613 459.5,444.5C 458.883,444.389 458.383,444.056 458,443.5C 457.722,444.416 457.222,445.082 456.5,445.5C 456.5,444.833 456.5,444.167 456.5,443.5C 456.5,442.833 456.5,442.167 456.5,441.5C 458.217,438.155 458.884,434.489 458.5,430.5C 456.801,430.38 455.135,430.046 453.5,429.5C 452.287,429.747 451.62,430.414 451.5,431.5C 448.362,430.319 445.362,430.319 442.5,431.5C 438.855,433.145 436.188,435.812 434.5,439.5C 431.419,444.937 432.086,449.937 436.5,454.5C 435.504,454.414 434.671,454.748 434,455.5C 431.762,453.396 430.762,451.062 431,448.5C 430.592,453.526 428.425,457.526 424.5,460.5C 423.583,459.873 422.583,459.539 421.5,459.5C 422.167,458.833 422.833,458.167 423.5,457.5C 425.144,457.19 426.144,456.19 426.5,454.5C 430.378,448.848 432.045,442.514 431.5,435.5C 432.482,432.038 432.815,428.371 432.5,424.5C 434.344,426.279 435.01,428.612 434.5,431.5C 439.779,429.138 445.279,427.471 451,426.5C 453.719,427.845 456.886,428.845 460.5,429.5C 460.975,425.916 461.975,422.583 463.5,419.5 Z"/></g>
<g><path style="opacity:1" fill="#4d5f8d" d="M 456.5,441.5 C 456.5,438.167 456.5,434.833 456.5,431.5C 454.833,431.5 453.167,431.5 451.5,431.5C 451.62,430.414 452.287,429.747 453.5,429.5C 455.135,430.046 456.801,430.38 458.5,430.5C 458.884,434.489 458.217,438.155 456.5,441.5 Z"/></g>
<g><path style="opacity:1" fill="#304787" d="M 442.5,431.5 C 445.362,430.319 448.362,430.319 451.5,431.5C 452.488,436.192 451.154,439.859 447.5,442.5C 448.933,440.442 449.6,438.108 449.5,435.5C 448.791,434.596 447.791,434.263 446.5,434.5C 446.804,433.85 447.137,433.183 447.5,432.5C 445.955,431.548 444.288,431.215 442.5,431.5 Z"/></g>
<g><path style="opacity:1" fill="#093399" d="M 463.5,419.5 C 465.144,419.286 466.644,419.62 468,420.5C 468.246,423.89 468.746,427.223 469.5,430.5C 467.663,434.178 466.33,438.011 465.5,442C 465.014,445.887 466.681,447.72 470.5,447.5C 467.638,448.681 464.638,448.681 461.5,447.5C 461.5,442.833 461.5,438.167 461.5,433.5C 462.487,428.883 463.154,424.216 463.5,419.5 Z"/></g>
<g><path style="opacity:1" fill="#9aaddb" d="M 446.5,434.5 C 447.791,434.263 448.791,434.596 449.5,435.5C 446.547,435.15 444.213,436.15 442.5,438.5C 442.833,436.167 444.167,434.833 446.5,434.5 Z"/></g>
<g><path style="opacity:1" fill="#6d8db4" d="M 482.5,428.5 C 483.232,429.808 484.066,431.142 485,432.5C 485.383,431.944 485.883,431.611 486.5,431.5C 486.5,432.167 486.5,432.833 486.5,433.5C 485.523,436.287 485.19,439.287 485.5,442.5C 484.833,440.5 484.167,438.5 483.5,436.5C 482.612,433.946 482.279,431.279 482.5,428.5 Z"/></g>
<g><path style="opacity:1" fill="#5774a0" d="M 491.5,431.5 C 492.167,431.5 492.833,431.5 493.5,431.5C 492.781,433.764 492.448,436.097 492.5,438.5C 491.532,436.393 491.198,434.059 491.5,431.5 Z"/></g>
<g><path style="opacity:1" fill="#0730a2" d="M 423.5,425.5 C 425.467,425.261 427.301,425.594 429,426.5C 429.667,431.833 429.667,437.167 429,442.5C 428.95,444.744 428.117,446.411 426.5,447.5C 426.823,441.31 426.49,435.31 425.5,429.5C 424.4,428.395 423.733,427.062 423.5,425.5 Z"/></g>
<g><path style="opacity:1" fill="#3859a3" d="M 422.5,424.5 C 425.5,424.5 428.5,424.5 431.5,424.5C 431.5,428.167 431.5,431.833 431.5,435.5C 432.045,442.514 430.378,448.848 426.5,454.5C 426.5,452.167 426.5,449.833 426.5,447.5C 428.117,446.411 428.95,444.744 429,442.5C 429.667,437.167 429.667,431.833 429,426.5C 427.301,425.594 425.467,425.261 423.5,425.5C 421.486,425.392 419.82,426.058 418.5,427.5C 418.694,425.088 420.027,424.088 422.5,424.5 Z"/></g>
<g><path style="opacity:1" fill="#06339a" d="M 479.5,443.5 C 478.5,443.5 477.5,443.5 476.5,443.5C 477.405,439.333 477.405,435.333 476.5,431.5C 476.167,431.5 475.833,431.5 475.5,431.5C 476.048,428.916 477.715,427.916 480.5,428.5C 480.914,430.808 481.247,433.142 481.5,435.5C 481.294,438.336 480.627,441.002 479.5,443.5 Z"/></g>
<g><path style="opacity:1" fill="#3e5a96" d="M 507.5,421.5 C 508.209,422.404 509.209,422.737 510.5,422.5C 509.468,429.868 508.468,437.202 507.5,444.5C 504.784,446.086 502.45,445.753 500.5,443.5C 500.5,442.5 500.5,441.5 500.5,440.5C 502.053,442.385 504.053,443.385 506.5,443.5C 506.557,441.116 506.223,438.782 505.5,436.5C 506.937,434.423 507.604,432.09 507.5,429.5C 508.461,427.735 508.795,425.735 508.5,423.5C 503.508,423.999 498.508,424.499 493.5,425C 491.524,427.637 489.191,429.803 486.5,431.5C 487.906,428.586 489.906,426.086 492.5,424C 497.679,423.45 502.679,422.616 507.5,421.5 Z"/></g>
<g><path style="opacity:1" fill="#083499" d="M 520.5,425.5 C 518.847,430.171 517.514,435.004 516.5,440C 515.216,440.684 514.049,440.517 513,439.5C 512.505,437.527 512.338,435.527 512.5,433.5C 513.151,432.909 513.818,432.243 514.5,431.5C 515.487,428.232 515.82,424.898 515.5,421.5C 518.95,420.756 520.616,422.09 520.5,425.5 Z"/></g>
<g><path style="opacity:1" fill="#4c713c" d="M 539.5,394.5 C 539.833,394.5 540.167,394.5 540.5,394.5C 541.083,409.492 541.75,424.492 542.5,439.5C 543.167,437.5 543.833,435.5 544.5,433.5C 547.21,434.914 548.21,436.914 547.5,439.5C 549.071,440.309 550.738,440.643 552.5,440.5C 554.118,432.295 554.785,423.961 554.5,415.5C 552.833,415.5 551.167,415.5 549.5,415.5C 549.5,420.833 549.5,426.167 549.5,431.5C 548.167,431.5 546.833,431.5 545.5,431.5C 545.5,426.167 545.5,420.833 545.5,415.5C 546.552,415.649 547.552,415.483 548.5,415C 547.476,413.633 547.976,412.8 550,412.5C 552.653,413.716 555.153,413.716 557.5,412.5C 558.167,412.5 558.5,412.833 558.5,413.5C 558.5,414.167 558.5,414.833 558.5,415.5C 557.175,419.276 556.509,423.443 556.5,428C 556.528,432.55 556.861,437.05 557.5,441.5C 551.537,442.496 545.537,442.829 539.5,442.5C 539.5,426.5 539.5,410.5 539.5,394.5 Z"/></g>
<g><path style="opacity:1" fill="#dde7f3" d="M 475.5,431.5 C 475.833,431.5 476.167,431.5 476.5,431.5C 477.003,437.347 475.003,442.014 470.5,445.5C 469.5,445.5 468.5,445.5 467.5,445.5C 467.457,442.09 467.957,438.757 469,435.5C 470.571,433.077 472.737,431.744 475.5,431.5 Z"/></g>
<g><path style="opacity:1" fill="#113493" d="M 442.5,431.5 C 444.288,431.215 445.955,431.548 447.5,432.5C 447.137,433.183 446.804,433.85 446.5,434.5C 444.167,434.833 442.833,436.167 442.5,438.5C 442.167,438.5 441.833,438.5 441.5,438.5C 439.025,439.687 438.025,441.687 438.5,444.5C 438.67,445.822 438.337,446.989 437.5,448C 439.5,448.667 441.5,449.333 443.5,450C 442.174,452.839 440.174,453.672 437.5,452.5C 434.963,448.574 433.963,444.241 434.5,439.5C 436.188,435.812 438.855,433.145 442.5,431.5 Z"/></g>
<g><path style="opacity:1" fill="#ebf3f3" d="M 449.5,435.5 C 449.6,438.108 448.933,440.442 447.5,442.5C 447.5,442.833 447.5,443.167 447.5,443.5C 446.318,446.009 444.318,447.343 441.5,447.5C 440.266,444.535 440.266,441.535 441.5,438.5C 441.833,438.5 442.167,438.5 442.5,438.5C 444.213,436.15 446.547,435.15 449.5,435.5 Z"/></g>
<g><path style="opacity:1" fill="#213d81" d="M 423.5,425.5 C 423.733,427.062 424.4,428.395 425.5,429.5C 425.829,435.537 425.496,441.537 424.5,447.5C 423.943,449.332 422.943,450.665 421.5,451.5C 423.349,444.285 424.349,436.951 424.5,429.5C 422.323,429.586 420.323,430.253 418.5,431.5C 417.218,430.042 417.218,428.708 418.5,427.5C 419.82,426.058 421.486,425.392 423.5,425.5 Z"/></g>
<g><path style="opacity:1" fill="#46679a" d="M 441.5,438.5 C 440.266,441.535 440.266,444.535 441.5,447.5C 440.1,446.9 439.1,445.9 438.5,444.5C 438.025,441.687 439.025,439.687 441.5,438.5 Z"/></g>
<g><path style="opacity:1" fill="#284595" d="M 491.5,431.5 C 491.198,434.059 491.532,436.393 492.5,438.5C 492.811,439.478 493.478,440.145 494.5,440.5C 496.85,439.423 498.517,437.756 499.5,435.5C 499.232,437.099 499.566,438.432 500.5,439.5C 500.5,439.833 500.5,440.167 500.5,440.5C 500.5,441.5 500.5,442.5 500.5,443.5C 497.573,442.521 495.573,443.688 494.5,447C 489.882,448.578 486.882,447.078 485.5,442.5C 485.19,439.287 485.523,436.287 486.5,433.5C 486.335,436.518 486.502,439.518 487,442.5C 488.011,443.337 489.178,443.67 490.5,443.5C 490.183,439.298 490.517,435.298 491.5,431.5 Z"/></g>
<g><path style="opacity:1" fill="#0c359b" d="M 451.5,431.5 C 453.167,431.5 454.833,431.5 456.5,431.5C 456.5,434.833 456.5,438.167 456.5,441.5C 456.5,442.167 456.5,442.833 456.5,443.5C 455.833,443.833 455.167,444.167 454.5,444.5C 451.572,445.637 451.238,446.97 453.5,448.5C 448.91,450.176 446.91,448.51 447.5,443.5C 447.5,443.167 447.5,442.833 447.5,442.5C 451.154,439.859 452.488,436.192 451.5,431.5 Z"/></g>
<g><path style="opacity:1" fill="#718b65" d="M 649.5,414.5 C 647.883,413.962 646.216,413.629 644.5,413.5C 644.5,423.5 644.5,433.5 644.5,443.5C 638.167,443.5 631.833,443.5 625.5,443.5C 625.5,443.167 625.5,442.833 625.5,442.5C 626.167,442.5 626.833,442.5 627.5,442.5C 632.5,442.5 637.5,442.5 642.5,442.5C 642.194,432.75 642.527,423.084 643.5,413.5C 643.5,413.167 643.5,412.833 643.5,412.5C 645.984,411.219 648.318,411.553 650.5,413.5C 650.376,414.107 650.043,414.44 649.5,414.5 Z"/></g>
<g><path style="opacity:1" fill="#2f467c" d="M 461.5,433.5 C 461.5,438.167 461.5,442.833 461.5,447.5C 460.833,446.5 460.167,445.5 459.5,444.5C 459.646,440.613 460.313,436.946 461.5,433.5 Z"/></g>
<g><path style="opacity:1" fill="#233d8c" d="M 476.5,431.5 C 477.405,435.333 477.405,439.333 476.5,443.5C 477.5,443.5 478.5,443.5 479.5,443.5C 479.5,443.833 479.5,444.167 479.5,444.5C 475.295,449.428 469.962,451.262 463.5,450C 462.244,449.583 461.577,448.75 461.5,447.5C 464.638,448.681 467.638,448.681 470.5,447.5C 470.5,446.833 470.5,446.167 470.5,445.5C 475.003,442.014 477.003,437.347 476.5,431.5 Z"/></g>
<g><path style="opacity:1" fill="#29458d" d="M 434.5,439.5 C 433.963,444.241 434.963,448.574 437.5,452.5C 440.174,453.672 442.174,452.839 443.5,450C 441.5,449.333 439.5,448.667 437.5,448C 438.337,446.989 438.67,445.822 438.5,444.5C 439.1,445.9 440.1,446.9 441.5,447.5C 444.318,447.343 446.318,446.009 447.5,443.5C 446.91,448.51 448.91,450.176 453.5,448.5C 451.238,446.97 451.572,445.637 454.5,444.5C 454.721,447.279 454.388,449.946 453.5,452.5C 450.675,452.919 448.509,451.919 447,449.5C 445.5,451 444,452.5 442.5,454C 440.527,454.495 438.527,454.662 436.5,454.5C 432.086,449.937 431.419,444.937 434.5,439.5 Z"/></g>
<g><path style="opacity:1" fill="#5f74aa" d="M 456.5,443.5 C 456.5,444.167 456.5,444.833 456.5,445.5C 456.662,447.527 456.495,449.527 456,451.5C 455.329,452.252 454.496,452.586 453.5,452.5C 454.388,449.946 454.721,447.279 454.5,444.5C 455.167,444.167 455.833,443.833 456.5,443.5 Z"/></g>
<g><path style="opacity:1" fill="#0c3597" d="M 425.5,429.5 C 426.49,435.31 426.823,441.31 426.5,447.5C 426.5,449.833 426.5,452.167 426.5,454.5C 426.144,456.19 425.144,457.19 423.5,457.5C 421.473,457.662 419.473,457.495 417.5,457C 419.746,455.743 421.079,453.91 421.5,451.5C 422.943,450.665 423.943,449.332 424.5,447.5C 425.496,441.537 425.829,435.537 425.5,429.5 Z"/></g>
<g><path style="opacity:1" fill="#263d83" d="M 421.5,451.5 C 421.079,453.91 419.746,455.743 417.5,457C 419.473,457.495 421.473,457.662 423.5,457.5C 422.833,458.167 422.167,458.833 421.5,459.5C 417.122,459.96 414.122,458.127 412.5,454C 412.833,453.5 413.167,453 413.5,452.5C 416.382,453.811 419.049,453.478 421.5,451.5 Z"/></g>
</svg>
